<svg width="24" height="24" viewBox="0 0 24 24" fill="none" xmlns="http://www.w3.org/2000/svg">
<g id="CSS">
<path id="Vector" fill-rule="evenodd" clip-rule="evenodd" d="M0.00376332 0.279825C0.00585406 0.43379 0.0702488 1.09132 0.146909 1.74113C0.22343 2.39095 0.350686 3.62217 0.429438 4.47719C0.508189 5.33221 0.634609 6.61941 0.710433 7.33762C0.840198 8.56835 0.931215 9.53294 1.24719 13.0274C1.46937 15.485 1.66214 17.4453 1.73935 18.0331C1.77978 18.341 1.88417 19.2458 1.97143 20.044C2.05868 20.8422 2.17632 21.562 2.23277 21.6436C2.28936 21.7252 2.57844 21.838 2.87518 21.8942C3.17207 21.9503 3.6344 22.0525 3.90271 22.1212C4.17102 22.1897 4.79824 22.3407 5.29654 22.4564C5.79483 22.5721 6.42205 22.7376 6.69036 22.824C6.95867 22.9104 7.46045 23.0469 7.80542 23.1272C8.15039 23.2077 8.62527 23.3256 8.86069 23.3894C9.0961 23.453 9.4217 23.5053 9.58422 23.5053C9.74674 23.5053 9.91846 23.5612 9.96585 23.6296C10.0132 23.698 10.2328 23.754 10.4537 23.754C10.6746 23.754 10.8941 23.81 10.9415 23.8784C11.0539 24.0405 12.9199 24.0405 13.0323 23.8784C13.0797 23.81 13.3038 23.754 13.5303 23.754C13.7568 23.754 14.051 23.7028 14.1841 23.6402C14.4586 23.511 16.1477 23.0671 16.8289 22.9451C17.0771 22.9007 17.316 22.8127 17.3598 22.7495C17.4034 22.6863 17.582 22.6347 17.7565 22.6347C17.931 22.6347 18.4448 22.5316 18.8982 22.4056C19.3516 22.2796 20.1234 22.1079 20.6131 22.0241C21.1031 21.9402 21.5961 21.7893 21.709 21.6885C21.8513 21.5615 21.9548 21.021 22.047 19.9248C22.1201 19.0554 22.2402 17.7005 22.3139 16.9138C22.615 13.6977 22.7297 12.3071 22.8009 11.0064C22.8421 10.254 22.9347 9.58518 23.0066 9.52026C23.0787 9.45521 23.1375 8.98598 23.1375 8.47744C23.1375 7.96891 23.1983 7.21065 23.2727 6.79228C23.347 6.37403 23.506 4.94046 23.6262 3.60663C23.7463 2.2728 23.8796 0.915711 23.9222 0.590741L24 0H12H0L0.00376332 0.279825ZM8.25841 4.32161L4.59962 4.35693V5.41206C4.59962 6.03252 4.65705 6.46706 4.73901 6.46706C4.81567 6.46706 4.87839 6.54193 4.87839 6.63346C4.87839 6.76827 5.94216 6.81591 10.4792 6.88418C13.5597 6.93057 16.0997 6.98616 16.1238 7.00756C16.1477 7.02907 16.0912 7.61571 15.9979 8.31141L15.8284 9.57622H12.1653H8.50233V10.2508C8.50233 10.6218 8.57356 11.2008 8.66081 11.5376L8.81915 12.1501L11.2045 12.2308C12.5164 12.2752 14.0509 12.3117 14.6144 12.3119L15.6389 12.3123L15.5483 12.903C15.4985 13.2279 15.4138 13.9953 15.3601 14.6085L15.2624 15.7232L14.7745 15.8309C14.5062 15.8902 14.0822 15.9684 13.8325 16.0047C13.5825 16.041 13.3436 16.1205 13.3016 16.1813C13.2593 16.2423 13.0217 16.292 12.7732 16.292C12.5246 16.292 12.2481 16.3574 12.1583 16.4375C11.998 16.5805 11.4309 16.4849 10.482 16.1547C10.3059 16.0934 10.0117 16.0433 9.82814 16.0433C9.64457 16.0433 9.46073 15.9945 9.41947 15.935C9.37821 15.8754 9.15757 15.7933 8.92912 15.7525L8.51376 15.6784L8.4732 14.6596L8.43264 13.6406L7.01554 13.6295C6.23625 13.6232 5.57154 13.6461 5.53864 13.6803C5.50561 13.7145 5.5353 14.1622 5.60471 14.6752C5.67398 15.1883 5.7742 16.0816 5.8273 16.6605C5.92264 17.7003 5.92878 17.714 6.3419 17.8042C6.57189 17.8544 7.54408 18.0979 8.50233 18.3454C11.1672 19.0337 11.1834 19.0377 11.7756 19.1493C12.1604 19.222 12.5242 19.2 12.9603 19.0779C13.6871 18.8745 14.2003 18.7422 14.9836 18.5562C15.2903 18.4835 16.0116 18.3035 16.5865 18.1563C17.1615 18.0091 17.735 17.8634 17.8612 17.8323C17.9948 17.7995 18.1316 17.5832 18.189 17.3138C18.3305 16.6501 18.5476 14.3546 18.6299 12.6543C18.6688 11.8505 18.7581 11.193 18.8283 11.193C18.8989 11.193 18.956 10.4972 18.956 9.6384C18.956 8.68489 19.01 8.08382 19.0954 8.08382C19.1803 8.08382 19.2348 7.52417 19.2348 6.65361C19.2348 5.78304 19.2893 5.22339 19.3742 5.22339C19.4508 5.22339 19.5136 4.99953 19.5136 4.72593V4.22846L15.7154 4.25744C13.6263 4.27336 10.2708 4.30221 8.25841 4.32161Z" fill="black" fill-opacity="0.427"/>
<path id="Vector_2" fill-rule="evenodd" clip-rule="evenodd" d="M0.187733 0.192022C0.142294 0.297609 0.149263 0.591363 0.203065 0.844946C0.257006 1.09841 0.361543 2.00541 0.435555 2.86043C0.639193 5.21394 0.827359 7.10543 1.3138 11.6905C1.85085 16.7519 2.02033 18.4734 2.17268 20.4171C2.26857 21.6388 2.14355 21.5273 3.90297 21.9577C4.40127 22.0795 4.86862 22.2258 4.94137 22.2826C5.01427 22.3395 5.31213 22.386 5.60344 22.386C5.89475 22.386 6.1331 22.4419 6.1331 22.5103C6.1331 22.5787 6.34886 22.6347 6.61271 22.6347C6.87656 22.6347 7.13107 22.6907 7.17846 22.7591C7.22585 22.8275 7.44998 22.8834 7.67648 22.8834C7.90298 22.8834 8.19721 22.9339 8.33032 22.9957C8.46343 23.0574 8.82318 23.1666 9.12982 23.2385C10.7122 23.609 11.3828 23.7855 11.6019 23.8887C11.9106 24.0341 12.4053 24.0364 12.4053 23.8924C12.4053 23.8319 12.5779 23.7533 12.7886 23.7178C12.9995 23.6824 13.5169 23.5581 13.9385 23.4417C14.3601 23.3253 14.9089 23.2019 15.1581 23.1675C15.4072 23.1332 15.6111 23.0551 15.6111 22.9943C15.6111 22.9333 15.8582 22.8834 16.1604 22.8834C16.4626 22.8834 16.7485 22.8275 16.7959 22.7591C16.8432 22.6907 17.0941 22.6347 17.3534 22.6347C17.6126 22.6347 17.8635 22.5787 17.9109 22.5103C17.9583 22.4419 18.1778 22.386 18.3988 22.386C18.6197 22.386 18.8392 22.33 18.8866 22.2616C18.934 22.1932 19.1535 22.1372 19.3744 22.1372C19.5954 22.1372 19.8106 22.0876 19.8525 22.0269C19.8945 21.9664 20.1547 21.8789 20.4307 21.8327C21.6645 21.6262 21.6868 21.5843 21.8907 19.0903C22.0753 16.8315 22.2622 14.9257 22.3602 14.3021C22.4831 13.5204 22.7251 11.2739 22.8692 9.57622C22.9361 8.7896 23.0523 7.53039 23.1277 6.77798C23.4684 3.37891 23.5747 2.2238 23.646 1.15039L23.7222 0H11.9962C1.55424 0 0.261187 0.0210179 0.187733 0.192022ZM12.0677 1.82284C12.0234 1.92594 11.9872 2.47539 11.9872 3.04387C11.9872 3.90138 11.9469 4.09129 11.7506 4.15844C11.6204 4.20309 9.97392 4.23431 8.09184 4.22809C6.20962 4.22175 4.59125 4.21926 4.49535 4.22249C4.29018 4.22946 4.25575 4.72593 4.4605 4.72593C4.54316 4.72593 4.59989 5.18198 4.59989 5.84523V6.96452H8.37813C11.7661 6.96452 12.1476 6.9848 12.0718 7.16127C12.0252 7.26947 11.9872 7.8571 11.9872 8.46712V9.57622H10.2531C9.29931 9.57622 8.49647 9.61826 8.46887 9.6695C8.44127 9.72074 8.44336 10.3363 8.47361 11.0375L8.52866 12.3123H10.2479H11.9671L12.0132 14.2089C12.0386 15.2519 12.0138 16.1567 11.9582 16.2195C11.8472 16.3446 10.6969 16.1537 9.52441 15.8158C8.8406 15.6187 8.80004 15.5828 8.72742 15.1105C8.68533 14.8369 8.6109 14.3752 8.56212 14.0845L8.47333 13.556L6.9896 13.5578C6.17352 13.5589 5.41179 13.614 5.2968 13.6803C5.17247 13.752 5.15477 13.8017 5.25303 13.8028C5.36524 13.8041 5.43911 14.2137 5.48343 15.0794C5.54239 16.2322 5.61905 16.8708 5.78603 17.6003C5.84192 17.8445 5.95036 17.8855 7.59661 18.2856C7.82659 18.3416 8.5479 18.5265 9.19951 18.6966C10.1999 18.9578 10.8196 19.1121 11.7906 19.3421C11.8854 19.3646 11.9532 19.8611 11.9709 20.6635C11.9865 21.3705 12.0557 21.9994 12.1247 22.061C12.1994 22.1277 12.4094 22.1175 12.6414 22.0363C12.8565 21.9609 13.6598 21.7551 14.4264 21.5788C15.193 21.4025 15.929 21.2042 16.0621 21.1381C16.1953 21.072 16.4933 21.0179 16.7242 21.0179C16.9553 21.0179 17.1443 20.962 17.1443 20.8936C17.1443 20.8252 17.3914 20.7692 17.6936 20.7692C17.9958 20.7692 18.2817 20.7132 18.3291 20.6448C18.3765 20.5764 18.5653 20.5205 18.7489 20.5205C19.2116 20.5205 19.7742 20.2732 19.8529 20.0352C19.8892 19.9259 19.9911 19.025 20.0796 18.0331C20.1681 17.0413 20.2737 16.1807 20.3144 16.1208C20.4036 15.9893 20.6287 13.4061 20.7195 11.4728C20.7556 10.7034 20.8441 10.0737 20.9161 10.0737C20.9903 10.0737 21.047 9.43855 21.047 8.60616C21.047 7.79902 21.1046 7.08553 21.175 7.02049C21.2454 6.95557 21.3389 6.31471 21.3831 5.59649C21.4271 4.87828 21.501 3.681 21.5471 2.9358C21.6269 1.64922 21.6182 1.58654 21.3739 1.68964C21.0728 1.81662 13.413 1.84286 12.6601 1.71949C12.2705 1.65557 12.1291 1.68032 12.0677 1.82284Z" fill="white"/>
</g>
</svg>
