<svg width="24" height="24" viewBox="0 0 24 24" fill="none" xmlns="http://www.w3.org/2000/svg">
<path id="HTML" fill-rule="evenodd" clip-rule="evenodd" d="M0.10072 0.338462C0.242864 0.815754 0.448321 2.86954 0.531585 4.64615C0.570515 5.47545 0.661121 6.15385 0.732886 6.15385C0.807698 6.15385 0.863531 6.81083 0.863531 7.69231C0.863531 8.56985 0.919501 9.23077 0.993621 9.23077C1.06525 9.23077 1.15294 9.85391 1.18841 10.6154C1.22388 11.377 1.31809 12.6092 1.39775 13.3538C1.47741 14.0985 1.60736 15.4277 1.68647 16.3077C1.76571 17.1877 1.89193 18.1292 1.96715 18.4C2.04224 18.6708 2.10528 19.3314 2.10708 19.8682C2.11221 21.3791 2.45385 21.9077 3.42489 21.9077C3.60735 21.9077 3.79507 21.9631 3.84218 22.0308C3.88928 22.0985 4.11109 22.1538 4.33525 22.1538C4.55941 22.1538 4.7427 22.2092 4.7427 22.2769C4.7427 22.3446 4.9609 22.4 5.2276 22.4C5.49429 22.4 5.71249 22.4554 5.71249 22.5231C5.71249 22.5908 6.02421 22.6462 6.4052 22.6462C6.78619 22.6462 7.09791 22.6953 7.09791 22.7553C7.09791 22.8153 7.26942 22.8926 7.4789 22.927C8.09499 23.0282 9.91737 23.5062 10.1785 23.6352C10.3108 23.7004 10.5721 23.7538 10.7592 23.7538C10.9462 23.7538 11.1378 23.8092 11.1849 23.8769C11.232 23.9446 11.6408 24 12.0936 24C12.5499 24 12.9167 23.9451 12.9167 23.8769C12.9167 23.8092 13.1037 23.7538 13.3323 23.7538C13.5609 23.7538 13.7479 23.6985 13.7479 23.6308C13.7479 23.5631 13.8786 23.5077 14.0383 23.5077C14.3916 23.5077 15.8033 23.1727 16.1358 23.01C16.2681 22.9452 16.5955 22.8923 16.8632 22.8923C17.131 22.8923 17.35 22.8369 17.35 22.7692C17.35 22.7015 17.5682 22.6462 17.8349 22.6462C18.1016 22.6462 18.3198 22.5908 18.3198 22.5231C18.3198 22.4554 18.5031 22.4 18.7272 22.4C18.9514 22.4 19.1732 22.3446 19.2203 22.2769C19.2674 22.2092 19.5516 22.1538 19.8519 22.1538C20.1523 22.1538 20.3979 22.1026 20.3979 22.0401C20.3979 21.9776 20.7253 21.8804 21.1253 21.824L21.8526 21.7216L21.8946 20.9223C21.9176 20.4827 21.9956 20.0705 22.0678 20.0062C22.1399 19.9419 22.199 19.3188 22.199 18.6215C22.199 17.8585 22.2541 17.3538 22.3375 17.3538C22.4221 17.3538 22.476 16.7794 22.476 15.8769C22.476 15.0341 22.5321 14.4 22.6067 14.4C22.6784 14.4 22.7655 13.7216 22.8 12.8923C22.8343 12.0631 22.8975 11.1908 22.9403 10.9538C22.9832 10.7169 23.1167 9.44308 23.2368 8.12308C23.357 6.80308 23.5157 5.38437 23.5892 4.97046C23.6628 4.55643 23.7229 3.77046 23.7229 3.22388C23.7229 2.67717 23.7853 2.19569 23.8615 2.15385C23.9377 2.112 24 1.61034 24 1.03889V0H11.9999H0L0.10072 0.338462ZM8.27551 4.43188C6.21817 4.47065 4.51937 4.51397 4.50025 4.52812C4.39468 4.60652 4.48792 5.29231 4.60416 5.29231C4.6877 5.29231 4.7427 5.80271 4.7427 6.57735C4.7427 7.30129 4.80324 7.89563 4.88124 7.93846C4.95744 7.98031 5.01937 8.38511 5.01895 8.83803C5.01798 9.95975 5.30989 12.2092 5.48237 12.408C5.56356 12.5015 5.86059 12.5616 6.18713 12.5504C6.49761 12.5397 8.7309 12.5361 11.1503 12.5424L15.549 12.5538V13.8462C15.549 14.6256 15.494 15.1385 15.4104 15.1385C15.3342 15.1385 15.2719 15.3323 15.2719 15.5692C15.2719 15.9794 15.2487 16 14.787 16C14.5203 16 14.3021 16.0554 14.3021 16.1231C14.3021 16.1908 14.0527 16.2462 13.7479 16.2462C13.4431 16.2462 13.1937 16.3015 13.1937 16.3692C13.1937 16.4416 12.7116 16.4923 12.0243 16.4923C11.3811 16.4923 10.8164 16.4369 10.7693 16.3692C10.7222 16.3015 10.5004 16.2462 10.2762 16.2462C10.052 16.2462 9.86874 16.1908 9.86874 16.1231C9.86874 16.0554 9.62602 16 9.3294 16C8.67839 16 8.62187 15.9019 8.62187 14.7723C8.62187 13.7721 8.64168 13.7839 6.98264 13.7865C5.71124 13.7886 5.32153 13.8906 5.51618 14.1705C5.58018 14.2624 5.67799 14.9746 5.73341 15.7534C5.78897 16.5321 5.87611 17.377 5.92723 17.6308C6.01243 18.0553 6.05691 18.0923 6.4814 18.0923C6.73534 18.0923 6.98153 18.1477 7.02864 18.2154C7.07574 18.2831 7.27025 18.3385 7.46103 18.3385C7.82969 18.3385 9.08418 18.649 9.48581 18.8396C9.61812 18.9024 9.87941 18.9538 10.0664 18.9538C10.2535 18.9538 10.4451 19.0092 10.4922 19.0769C10.5393 19.1446 10.7611 19.2 10.9853 19.2C11.2094 19.2 11.3927 19.2554 11.3927 19.3231C11.3927 19.3908 11.7044 19.4462 12.0854 19.4462C12.4664 19.4462 12.7781 19.3908 12.7781 19.3231C12.7781 19.2554 12.9963 19.2 13.263 19.2C13.5297 19.2 13.7479 19.1504 13.7479 19.0898C13.7479 19.0293 13.9818 18.9534 14.2674 18.9211C14.5533 18.8889 15.3481 18.7116 16.0339 18.5273C16.7196 18.3428 17.4678 18.1618 17.6964 18.1252C18.2374 18.0382 18.3151 17.9146 18.3177 17.1385C18.3188 16.7831 18.3821 16.4923 18.4583 16.4923C18.543 16.4923 18.5969 15.9179 18.5969 15.0154C18.5969 14.1129 18.6508 13.5385 18.7354 13.5385C18.8206 13.5385 18.874 12.9231 18.874 11.9385C18.874 10.9538 18.9273 10.3385 19.0125 10.3385C19.0887 10.3385 19.151 10.2277 19.151 10.0923C19.151 9.85022 19.0586 9.84615 13.6094 9.84615H8.0677V8.92308C8.0677 8.38978 8.00924 8 7.92916 8C7.85296 8 7.79062 7.80615 7.79062 7.56923V7.13846H13.4539C17.8188 7.13846 19.1485 7.10314 19.2545 6.98462C19.423 6.79606 19.6114 4.80062 19.4878 4.51446C19.4068 4.32702 19.053 4.31015 15.7073 4.33452C13.6771 4.34929 10.3329 4.39311 8.27551 4.43188Z" fill="white"/>
</svg>
