<svg width="26" height="26" viewBox="0 0 26 26" fill="none" xmlns="http://www.w3.org/2000/svg">
<g id="Frame 6" clip-path="url(#clip0_86_105)">
<rect id="Rectangle 8" width="26" height="26" fill="white"/>
<g id="JS" filter="url(#filter0_d_86_105)">
<path fill-rule="evenodd" clip-rule="evenodd" d="M0.165079 0.165069C0.00140318 0.328736 0 0.440158 0 12.9932V25.6563L0.218482 25.8282L0.436965 26L13.0607 25.9785L25.6845 25.9572L25.8422 25.7623C25.996 25.5724 26 25.2507 26 13.0012V0.434958L25.8289 0.217479L25.6579 0H12.994C0.440185 0 0.328756 0.00140309 0.165079 0.165069ZM1.15556 12.9992V24.8429H13H24.8444V12.9992V1.15549H13H1.15556V12.9992ZM18.509 11.3107C17.5037 11.4911 16.3809 12.2487 15.8998 13.0713C15.2575 14.1693 15.283 15.7938 15.9606 16.9499C16.4423 17.7719 17.2278 18.3058 19.4345 19.3116C20.3357 19.7223 20.4698 19.8361 20.4698 20.1904C20.4698 20.5468 20.149 20.7231 19.483 20.7325C18.8035 20.7421 18.3374 20.4985 17.8678 19.8882C17.4387 19.3305 17.2749 19.2536 16.9021 19.4347C16.1628 19.7939 14.8897 20.6191 14.7838 20.808C14.6756 21.0005 14.6826 21.0572 14.8582 21.42C15.1727 22.0695 16.0821 22.9602 16.7858 23.308C17.7829 23.8006 18.5924 23.9642 19.7657 23.9104C20.8102 23.8624 21.2323 23.7637 21.9637 23.3965C22.9246 22.9142 23.483 22.2622 23.784 21.2712C23.9239 20.8109 23.9485 20.5506 23.921 19.8257C23.8921 19.0649 23.8555 18.8777 23.6586 18.4827C23.1373 17.4372 22.312 16.788 20.4275 15.9409C19.0677 15.3297 18.9997 15.2852 18.9355 14.964C18.8699 14.636 19.0675 14.4427 19.4646 14.4465C19.8652 14.4503 20.0753 14.577 20.3807 14.9989C20.7808 15.5514 20.9099 15.5413 21.9349 14.8764C22.423 14.5599 22.9019 14.2595 22.9993 14.2089C23.294 14.0557 23.372 13.687 23.1883 13.3159C22.9669 12.869 22.3567 12.1952 21.8981 11.8914C21.1221 11.3774 19.5953 11.1158 18.509 11.3107ZM11.3455 11.5924L11.1429 11.795V16.1318C11.1429 20.3586 11.1386 20.4728 10.9778 20.6337C10.8692 20.7423 10.7027 20.7987 10.4911 20.7987C10.1546 20.7987 10.0743 20.7316 9.46788 19.943C9.3094 19.7369 9.17165 19.6433 9.02687 19.6433C8.70142 19.6433 6.61176 20.942 6.55167 21.1817C6.4518 21.5794 6.75942 22.1469 7.46299 22.8634C9.29248 24.7265 12.9672 24.3704 14.1397 22.2163C14.5882 21.3923 14.607 21.1536 14.6083 16.2419L14.6095 11.7264L14.4288 11.5581C14.2624 11.4029 14.1428 11.3898 12.8981 11.3898C11.5748 11.3898 11.5441 11.3938 11.3455 11.5924ZM18.5743 12.4705C17.7325 12.6355 16.8847 13.414 16.6646 14.2243C16.5061 14.8076 16.6189 15.6808 16.9275 16.2597C17.3227 17.0012 17.8043 17.3369 19.5206 18.0678C21.1449 18.7594 21.6254 19.2374 21.6254 20.1619C21.6254 20.7237 21.4993 21.0052 21.0839 21.3698C20.5518 21.8369 19.7414 22.0273 18.9483 21.8712C18.3104 21.7457 17.9017 21.534 17.4108 21.0749L17.0165 20.7061L16.7003 20.8697C16.0356 21.2138 16.038 21.2028 16.5254 21.7013C18.0089 23.2182 21.2442 23.1625 22.3759 21.6005C22.6923 21.1637 22.8018 20.7312 22.7927 19.9543C22.7774 18.641 22.1283 17.9492 20.0656 17.0471C18.7508 16.4721 18.4972 16.3298 18.1989 15.9997C17.6294 15.3694 17.6016 14.4072 18.1364 13.8439C18.8187 13.1254 20.0135 13.0879 20.799 13.7604L21.1269 14.0411L21.5 13.7844C21.7051 13.6432 21.873 13.4953 21.873 13.4556C21.873 13.4159 21.6995 13.2351 21.4874 13.0539C20.8036 12.4694 19.7038 12.2491 18.5743 12.4705ZM12.2979 16.4863C12.2977 18.8718 12.2647 20.5452 12.2146 20.7259C11.9981 21.5051 11.3876 21.9542 10.5449 21.9542C9.94628 21.9542 9.60589 21.815 9.1279 21.3744L8.75383 21.0296L8.36515 21.2684C8.15145 21.3998 7.9645 21.5434 7.94973 21.5876C7.89253 21.7592 8.44843 22.2884 8.93789 22.5283C9.59722 22.8513 10.2866 22.9763 11.019 22.9054C12.5055 22.7619 13.3245 21.905 13.4426 20.3697C13.4716 19.9929 13.4844 18.0782 13.4713 16.1149L13.4473 12.5453H12.8729H12.2984L12.2979 16.4863Z" fill="#030917"/>
</g>
</g>
<defs>
<filter id="filter0_d_86_105" x="-4" y="0" width="34" height="34" filterUnits="userSpaceOnUse" color-interpolation-filters="sRGB">
<feFlood flood-opacity="0" result="BackgroundImageFix"/>
<feColorMatrix in="SourceAlpha" type="matrix" values="0 0 0 0 0 0 0 0 0 0 0 0 0 0 0 0 0 0 127 0" result="hardAlpha"/>
<feOffset dy="4"/>
<feGaussianBlur stdDeviation="2"/>
<feComposite in2="hardAlpha" operator="out"/>
<feColorMatrix type="matrix" values="0 0 0 0 0 0 0 0 0 0 0 0 0 0 0 0 0 0 0.25 0"/>
<feBlend mode="normal" in2="BackgroundImageFix" result="effect1_dropShadow_86_105"/>
<feBlend mode="normal" in="SourceGraphic" in2="effect1_dropShadow_86_105" result="shape"/>
</filter>
<clipPath id="clip0_86_105">
<rect width="26" height="26" fill="white"/>
</clipPath>
</defs>
</svg>
