<svg width="98" height="74" viewBox="0 0 98 74" fill="none" xmlns="http://www.w3.org/2000/svg">
<g clip-path="url(#clip0_7_24169)">
<path fill-rule="evenodd" clip-rule="evenodd" d="M15.6552 6.89341C15.6552 6.90617 15.6553 6.91252 15.6563 6.91266C15.6574 6.91282 15.6596 6.90536 15.6639 6.89053C15.6826 6.82641 15.7413 6.62446 15.9262 6.30431C16.1676 5.88651 16.562 5.38052 17.1429 4.90412C18.2754 3.97533 20.1898 3.09949 23.2352 3.32304C35.6664 4.23558 42.4613 12.7631 42.4613 18.9329V58.086C42.4613 58.4903 42.39 58.6402 42.3695 58.6744C42.3289 58.6991 42.1733 58.7693 41.7692 58.7693H34.2113C33.8072 58.7693 33.6516 58.6991 33.611 58.6744C33.5905 58.6402 33.5192 58.4903 33.5192 58.086V21.9447C33.5192 19.3748 32.2632 16.8598 30.4615 15.0159C28.6536 13.1657 26.1216 11.813 23.3555 11.813H15.6552V6.89341ZM42.381 58.6659C42.3809 58.6657 42.3784 58.6674 42.3741 58.6714C42.3778 58.669 42.3799 58.6672 42.3807 58.6664C42.381 58.6661 42.3811 58.6659 42.381 58.6659ZM33.5994 58.6659C33.5996 58.6657 33.6021 58.6674 33.6064 58.6714C33.6014 58.6681 33.5993 58.6661 33.5994 58.6659ZM23.3555 15.1009H15.6552V58.086C15.6552 59.1166 15.4701 60.2756 14.5945 61.1083C13.738 61.9227 12.599 62.0572 11.6752 62.0572H3.97995C3.12037 62.0572 2.06239 61.8936 1.2164 61.1562C0.325207 60.3793 0 59.2629 0 58.086V21.5342C-6.55648e-06 19.4961 1.14169 17.1064 2.7443 15.2814C4.36866 13.4316 6.77442 11.813 9.61317 11.813H12.3674V6.88579C12.3674 6.16297 12.6768 5.35642 13.0792 4.65977C13.5137 3.90763 14.1638 3.09525 15.0579 2.3619C16.8756 0.87117 19.6332 -0.238072 23.4759 0.0440064C37.1535 1.04804 45.7492 10.6051 45.7492 18.9329V58.086C45.7492 59.0562 45.5308 60.1307 44.7414 60.9529C43.9397 61.7878 42.8449 62.0572 41.7692 62.0572H34.2113C33.1356 62.0572 32.0408 61.7878 31.2391 60.9529C30.4497 60.1307 30.2314 59.0562 30.2314 58.086V21.9447C30.2314 20.4187 29.4546 18.6899 28.11 17.3138C26.7716 15.9441 25.0438 15.1009 23.3555 15.1009ZM9.61317 15.1009H12.3674V58.086C12.3674 58.4175 12.3358 58.6107 12.3079 58.7126C12.2 58.7409 12.0047 58.7693 11.6752 58.7693H3.97995C3.56211 58.7693 3.41102 58.6966 3.3805 58.6793C3.35226 58.6314 3.28786 58.4735 3.28786 58.086V21.5342C3.28786 20.5604 3.93212 18.9115 5.21481 17.4509C6.47575 16.015 8.05461 15.1009 9.61317 15.1009ZM3.39345 58.6964C3.39301 58.6969 3.38909 58.6931 3.38298 58.6834C3.39083 58.691 3.39389 58.6959 3.39345 58.6964ZM82.2886 66.8479C82.2886 66.8352 82.2885 66.8288 82.2875 66.8287C82.2864 66.8285 82.2843 66.836 82.2799 66.8508C82.2613 66.9149 82.2026 67.1169 82.0176 67.437C81.7763 67.8548 81.3818 68.3608 80.8009 68.8372C79.6685 69.766 77.754 70.6419 74.7087 70.4183C62.2775 69.5058 55.4825 60.9782 55.4825 54.8085V15.6554C55.4825 15.2511 55.5539 15.1012 55.5744 15.067C55.6149 15.0423 55.7705 14.972 56.1747 14.972H63.7325C64.1366 14.972 64.2922 15.0423 64.3328 15.067C64.3533 15.1012 64.4246 15.2511 64.4246 15.6554V51.7967C64.4246 54.3666 65.6806 56.8816 67.4823 58.7254C69.2903 60.5757 71.8223 61.9283 74.5883 61.9283H82.2886V66.8479ZM55.5697 15.07C55.5655 15.074 55.563 15.0756 55.5628 15.0755C55.5626 15.0753 55.5647 15.0733 55.5697 15.07ZM64.3444 15.0754C64.3442 15.0756 64.3417 15.074 64.3375 15.0699C64.3425 15.0733 64.3446 15.0753 64.3444 15.0754ZM74.5883 58.6405H82.2886V15.6554C82.2886 14.6248 82.4738 13.4657 83.3494 12.6331C84.2058 11.8187 85.3448 11.6842 86.2686 11.6842H93.9639C94.8235 11.6842 95.8815 11.8477 96.7275 12.5852C97.6186 13.3621 97.9438 14.4784 97.9438 15.6554V52.2072C97.9439 54.2453 96.8022 56.635 95.1995 58.4599C93.5752 60.3097 91.1694 61.9283 88.3307 61.9283H85.5765V66.8556C85.5765 67.5784 85.2671 68.3849 84.8646 69.0816C84.4302 69.8337 83.7801 70.6461 82.8859 71.3794C81.0683 72.8702 78.3106 73.9794 74.468 73.6973C60.7904 72.6933 52.1947 63.1363 52.1947 54.8085V15.6554C52.1947 14.6852 52.4131 13.6107 53.2025 12.7885C54.0041 11.9535 55.099 11.6842 56.1747 11.6842H63.7325C64.8082 11.6842 65.9031 11.9535 66.7048 12.7885C67.4941 13.6107 67.7125 14.6852 67.7125 15.6554V51.7967C67.7125 53.3226 68.4893 55.0515 69.8339 56.4276C71.1722 57.7972 72.9001 58.6405 74.5883 58.6405ZM88.3307 58.6405H85.5765V15.6554C85.5765 15.3238 85.608 15.1306 85.6359 15.0287C85.7439 15.0004 85.9392 14.972 86.2686 14.972H93.9639C94.3817 14.972 94.5328 15.0448 94.5634 15.062C94.5916 15.1099 94.656 15.2678 94.656 15.6554V52.2072C94.656 53.1809 94.0117 54.8298 92.729 56.2905C91.4681 57.7264 89.8892 58.6405 88.3307 58.6405ZM94.5504 15.0449C94.5508 15.0444 94.5548 15.0482 94.5609 15.058C94.553 15.0503 94.55 15.0455 94.5504 15.0449Z" fill="white"/>
</g>
<defs>
<clipPath id="clip0_7_24169">
<rect width="97.9438" height="73.7413" fill="white"/>
</clipPath>
</defs>
</svg>
