<svg width="23" height="19" viewBox="0 0 23 19" fill="none" xmlns="http://www.w3.org/2000/svg">
<g id="react">
<path id="Vector" fill-rule="evenodd" clip-rule="evenodd" d="M5.87223 0.0606615C5.53887 0.15965 4.95163 0.674518 4.75377 1.04113C4.32101 1.84336 4.20319 3.39911 4.46123 4.90459C4.53815 5.35289 4.60174 5.76261 4.60268 5.81505C4.60353 5.86748 4.29597 6.00451 3.91925 6.11944C2.42142 6.57644 0.961486 7.49296 0.371407 8.34691C-0.557601 9.69118 0.279659 11.1701 2.62004 12.319C3.06177 12.5359 3.65704 12.7884 3.94287 12.88C4.2287 12.9718 4.49648 13.0731 4.53786 13.1052C4.57934 13.1374 4.5424 13.5622 4.45585 14.0491C4.24193 15.2517 4.30429 16.8333 4.59399 17.5528C4.84826 18.1844 5.45355 18.7502 6.03663 18.9014C7.16076 19.1928 8.94971 18.5087 10.5732 17.1665C10.8679 16.9228 11.1378 16.7235 11.1728 16.7235C11.208 16.7235 11.4983 16.9427 11.8181 17.2106C13.4725 18.5967 15.2832 19.2537 16.3615 18.859C17.5866 18.4105 18.1638 16.8697 17.9335 14.6624C17.8775 14.1248 17.79 13.5459 17.7393 13.3762C17.6884 13.2064 17.6568 13.0617 17.6689 13.0546C17.681 13.0476 18.0311 12.925 18.4468 12.7825C20.2155 12.1758 21.4973 11.2943 22.0204 10.3248C22.829 8.82592 21.418 7.18767 18.4468 6.17577C18.0311 6.03422 17.6778 5.9086 17.6617 5.89674C17.6456 5.88478 17.6988 5.54009 17.7798 5.13073C17.9674 4.18323 17.9715 2.52496 17.7881 1.84997C17.6076 1.18558 17.1741 0.524813 16.7322 0.240435C16.4232 0.0415521 16.2804 0.0142917 15.558 0.0160125C14.7688 0.0179144 14.7 0.0351219 13.8511 0.443122C13.0067 0.848948 12.0661 1.47032 11.4547 2.02622L11.1712 2.28388L10.5096 1.77281C9.0236 0.624888 7.82794 0.0586692 6.77752 0.00541637C6.43972 -0.0117006 6.03238 0.0131144 5.87223 0.0606615ZM15.2342 0.960979C14.6375 1.10806 13.9741 1.40095 13.4181 1.76285C12.8205 2.15183 11.9487 2.83959 11.8985 2.96167C11.8828 2.99989 12.0529 3.22875 12.2764 3.47011C12.5001 3.71147 12.9052 4.19536 13.1766 4.5454L13.6702 5.18181L15.0878 5.396C15.8676 5.51382 16.5382 5.60638 16.5784 5.60158C16.6797 5.58954 16.8606 4.6846 16.9351 3.81779C17.0362 2.64071 16.7162 1.36708 16.2495 1.08967C15.9944 0.938065 15.554 0.882186 15.2342 0.960979ZM5.94942 1.13631C5.52895 1.48364 5.38183 1.98673 5.36634 3.1294C5.35415 4.0318 5.48738 5.40741 5.6052 5.5957C5.62486 5.62712 5.92854 5.59859 6.28004 5.5323C6.63163 5.46601 7.29182 5.36357 7.74715 5.30471L8.57506 5.19757L8.9276 4.73414C9.12148 4.4792 9.54555 3.97755 9.86993 3.61936L10.4598 2.96801L9.68161 2.3681C8.18794 1.21647 6.51928 0.665733 5.94942 1.13631ZM10.4615 4.42911L9.88429 5.08572L10.5041 5.11253C10.845 5.1272 11.4088 5.1272 11.757 5.11253L12.3898 5.08572L11.7998 4.42911C11.4752 4.06803 11.1711 3.77251 11.1242 3.77251C11.0771 3.77251 10.7789 4.06803 10.4615 4.42911ZM9.61405 6.11274C9.10967 6.17097 9.087 6.18601 8.73323 6.69942C8.24331 7.41037 7.25733 9.11265 7.18986 9.36397C7.13204 9.57961 7.91667 11.0579 8.6927 12.1952L9.09427 12.7838L9.89657 12.8504C10.3377 12.887 11.2549 12.8927 11.9346 12.863C13.0611 12.8137 13.1818 12.7918 13.2996 12.6153C14.1295 11.3706 15.0925 9.66582 15.0925 9.44095C15.0925 9.24813 13.7139 6.87929 13.2552 6.28373C13.1481 6.14471 12.9312 6.11853 11.6318 6.0881C10.8068 6.06872 9.89884 6.07977 9.61405 6.11274ZM6.61868 6.44122C6.29752 6.49266 6.01207 6.55705 5.98438 6.58431C5.88697 6.68013 6.45106 8.21025 6.58382 8.21025C6.62189 8.21025 6.77308 7.99633 6.91982 7.73478C7.06665 7.47322 7.32886 7.04403 7.50252 6.78093L7.8184 6.30256L7.51056 6.32511C7.34123 6.33752 6.93994 6.38978 6.61868 6.44122ZM14.5255 6.36342C14.5255 6.40182 14.7028 6.72107 14.9196 7.07274C15.1362 7.42441 15.3948 7.84463 15.4942 8.00647C15.5935 8.16832 15.6874 8.30081 15.7028 8.30081C15.7182 8.30081 15.8701 7.93022 16.0406 7.47721C16.3688 6.6046 16.3542 6.50416 15.8956 6.48397C15.7917 6.47935 15.6216 6.45933 15.5177 6.43932C14.9798 6.33607 14.5255 6.3013 14.5255 6.36342ZM4.22634 7.02293C2.46489 7.57013 1.01374 8.67467 1.01374 9.46812C1.01374 10.045 1.76029 10.806 2.91012 11.401C3.63267 11.7749 4.86347 12.218 4.91884 12.1241C4.93991 12.0885 5.03279 11.8352 5.12539 11.5612C5.2179 11.2872 5.43616 10.7508 5.6104 10.3692C5.78464 9.98751 5.92712 9.59373 5.92712 9.4942C5.92712 9.39458 5.78208 8.98821 5.60473 8.59108C5.42738 8.19404 5.20703 7.64022 5.115 7.36047C5.02297 7.08071 4.9023 6.85393 4.84684 6.85665C4.79138 6.85927 4.51216 6.93417 4.22634 7.02293ZM17.1131 7.4197C17.0031 7.72998 16.7757 8.31585 16.6075 8.72167L16.3018 9.45961L16.8434 10.7594C17.1414 11.4743 17.3983 12.074 17.4144 12.0918C17.4306 12.1097 17.7546 12.012 18.1343 11.8746C20.0647 11.1765 21.2342 10.267 21.2342 9.46404C21.2342 8.67367 20.0151 7.74093 18.1306 7.08931C17.7526 6.95862 17.4141 6.85266 17.3781 6.85366C17.3423 6.85475 17.223 7.10951 17.1131 7.4197ZM10.6854 7.57013C9.24668 7.90848 8.64451 9.60035 9.58722 10.6559C10.5761 11.7633 12.2354 11.5651 12.9379 10.2554C13.2101 9.74797 13.1474 8.91087 12.7994 8.40696C12.3602 7.77064 11.4182 7.39787 10.6854 7.57013ZM15.497 10.9235C15.4045 11.0845 15.1487 11.5077 14.9287 11.8641C14.7087 12.2205 14.528 12.5447 14.5272 12.5846C14.5249 12.687 16.093 12.5112 16.3057 12.3853C16.3853 12.3381 16.3246 12.0954 16.0898 11.5222C15.9102 11.0837 15.7412 10.7037 15.7143 10.6779C15.6874 10.6521 15.5896 10.7627 15.497 10.9235ZM6.35241 11.131C6.18649 11.5247 5.92996 12.2851 5.92816 12.3886C5.92722 12.4409 6.1247 12.4773 7.15547 12.6145C7.33736 12.6387 7.56054 12.6793 7.65153 12.7047C7.86139 12.7632 7.86007 12.6913 7.64567 12.3902C7.55147 12.258 7.2887 11.834 7.06183 11.448C6.83497 11.062 6.61897 10.7461 6.58193 10.7461C6.54489 10.7461 6.44161 10.9193 6.35241 11.131ZM16.502 13.3187C16.4524 13.3649 16.0776 13.4283 14.7428 13.6161L13.6845 13.7651L13.3764 14.1801C13.2069 14.4084 12.8004 14.9072 12.473 15.2885L11.8777 15.9818L12.4372 16.4659C13.8768 17.7113 15.7068 18.3391 16.3148 17.7962C16.8 17.3629 16.9351 16.8713 16.9334 15.5461C16.9315 14.0833 16.7403 13.0961 16.502 13.3187ZM5.50693 13.7797C5.47037 14.0131 5.4201 14.292 5.39506 14.3995C5.30161 14.8016 5.33629 16.6018 5.44467 16.9737C5.50646 17.1861 5.68731 17.5019 5.84643 17.6756C6.10835 17.9616 6.1829 17.9914 6.63578 17.9914C7.51604 17.9914 8.85493 17.3464 10.0136 16.3641L10.4624 15.9836L9.77308 15.1989C9.39389 14.7672 8.97399 14.2705 8.83982 14.095C8.59812 13.7788 8.58479 13.7744 7.3796 13.6077C6.71071 13.5152 6.03059 13.4206 5.86835 13.3975C5.58073 13.3565 5.57166 13.3662 5.50693 13.7797ZM10.3184 14.3564C10.5578 14.6485 10.8533 14.9772 10.975 15.0867L11.1964 15.2861L11.7743 14.6081C12.0922 14.2352 12.3523 13.9066 12.3523 13.8778C12.3523 13.8489 11.7967 13.8253 11.1177 13.8253H9.88306L10.3184 14.3564Z" fill="white"/>
</g>
</svg>
